<svg width="1200" height="630" viewBox="0 0 1200 630" fill="none" xmlns="http://www.w3.org/2000/svg">
  <defs>
    <linearGradient id="bg" x1="0" y1="0" x2="1" y2="1">
      <stop offset="0" stop-color="#0d0b0b"/>
      <stop offset="1" stop-color="#050505"/>
    </linearGradient>
    <radialGradient id="glow" cx="0" cy="0" r="1" gradientUnits="userSpaceOnUse" gradientTransform="translate(220 180) rotate(35) scale(420 320)">
      <stop stop-color="#ff7026" stop-opacity="0.35"/>
      <stop offset="1" stop-color="#ff7026" stop-opacity="0"/>
    </radialGradient>
    <linearGradient id="pill" x1="0" y1="0" x2="1" y2="1">
      <stop offset="0" stop-color="#ffb347"/>
      <stop offset="1" stop-color="#ff6100"/>
    </linearGradient>
  </defs>
  <rect width="1200" height="630" fill="url(#bg)"/>
  <rect width="1200" height="630" fill="url(#glow)"/>
  <g transform="translate(140 160)">
    <path d="M180 12c30-6 60-6 84 10 25 16 44 49 44 82 0 34-18 68-44 88-25 20-58 26-84 18-27-8-48-30-64-56-16-25-26-56-18-86 8-29 32-56 58-66z" fill="url(#pill)"/>
    <text x="176" y="134" font-family="Inter, Arial, sans-serif" font-size="96" font-weight="700" fill="#0c0c0c">A</text>
  </g>
  <g transform="translate(380 180)">
    <text x="0" y="0" font-family="Inter, Arial, sans-serif" font-size="64" letter-spacing="8" fill="#b9b9b9">ARCANA</text>
    <text x="0" y="86" font-family="Inter, Arial, sans-serif" font-size="88" font-weight="700" fill="#f3f3f3">Portfolio Studio</text>
  </g>
</svg>
